<?xml version="1.0" standalone="no"?>
<!DOCTYPE svg PUBLIC "-//W3C//DTD SVG 20010904//EN"
 "http://www.w3.org/TR/2001/REC-SVG-20010904/DTD/svg10.dtd">
<svg version="1.0" xmlns="http://www.w3.org/2000/svg"
 width="1024.000000pt" height="1024.000000pt" viewBox="0 0 1024.000000 1024.000000"
 preserveAspectRatio="xMidYMid meet">

<g transform="translate(0.000000,1024.000000) scale(0.100000,-0.100000)"
fill="#000000" stroke="none">
<path d="M0 5120 l0 -5120 5120 0 5120 0 0 5120 0 5120 -5120 0 -5120 0 0
-5120z m5600 2860 c341 -39 705 -176 1010 -381 135 -90 290 -217 290 -237 0
-4 -71 -19 -157 -34 l-158 -25 -55 38 c-142 100 -204 137 -325 195 -580 277
-1233 271 -1806 -16 -91 -45 -167 -92 -290 -179 l-45 -32 -157 22 c-86 12
-157 26 -157 30 0 13 156 146 257 217 150 106 373 223 558 291 126 47 362 97
585 125 54 7 344 -3 450 -14z m-3219 -474 c256 -123 430 -188 744 -277 155
-44 555 -127 765 -158 169 -25 624 -67 875 -81 245 -13 916 -13 1160 0 395 22
825 72 1145 136 486 96 873 219 1211 385 215 106 232 100 178 -62 -113 -341
-296 -716 -472 -971 l-60 -87 -71 -16 c-416 -97 -526 -117 -811 -154 l-210
-26 -3 -198 -2 -197 170 0 c199 0 391 18 654 61 206 35 210 34 199 -26 -62
-361 -289 -688 -511 -734 -30 -6 -153 -11 -282 -11 l-230 0 0 -155 0 -155 223
0 c213 0 224 -1 272 -24 131 -62 205 -223 176 -381 -22 -121 -91 -213 -178
-238 l-48 -14 -3 -752 -2 -751 585 0 585 0 31 -28 c27 -24 33 -37 37 -85 4
-54 3 -58 -31 -92 l-35 -35 -699 2 -698 3 -2 775 c-1 426 1 871 4 988 l5 212
80 0 c93 0 114 9 134 57 18 41 5 97 -26 113 -11 6 -126 10 -279 10 -252 0
-262 -1 -282 -21 -31 -31 -21 -94 21 -132 24 -22 40 -27 80 -27 l50 0 0 -978
c0 -538 -3 -981 -6 -984 -5 -6 -202 59 -217 72 -4 3 -8 836 -10 1850 l-2 1844
-55 -2 c-30 -1 -83 -5 -117 -8 l-63 -6 0 -299 0 -299 -1040 0 -1040 0 0 300 0
300 -37 1 c-21 0 -75 4 -120 7 l-83 7 0 -1850 0 -1850 -112 -36 c-62 -21 -116
-35 -120 -32 -5 2 -8 445 -8 984 l0 979 56 0 c66 0 89 10 109 50 21 40 19 72
-6 104 l-20 26 -265 0 -265 0 -24 -25 c-36 -35 -34 -88 4 -126 28 -28 34 -29
115 -29 l86 0 0 -990 0 -990 -700 0 -700 0 -31 28 c-59 53 -48 161 21 197 25
13 110 15 605 15 l575 0 0 755 c0 753 0 755 -20 755 -64 0 -156 86 -191 179
-28 74 -24 212 8 283 30 65 95 133 158 163 52 24 60 25 269 25 l216 0 0 155 0
155 -222 0 c-123 0 -243 5 -267 11 -108 24 -235 113 -316 221 -82 108 -168
308 -209 486 -21 90 -13 95 101 71 182 -39 465 -69 781 -84 l132 -7 0 204 0
203 -223 28 c-238 29 -510 78 -727 130 l-135 33 -97 144 c-103 154 -267 463
-341 645 -59 144 -127 341 -127 369 0 26 18 46 41 46 9 0 94 -38 190 -84z
m3979 -3601 c0 -876 -3 -1375 -10 -1375 -5 0 -59 19 -120 41 l-110 41 0 854 0
854 -131 0 c-96 0 -130 -3 -127 -12 5 -13 22 -24 61 -38 l27 -10 0 -801 0
-801 -25 6 c-14 4 -65 23 -113 44 l-87 37 -5 697 -5 696 -27 21 c-96 76 -93
270 5 344 54 40 91 47 262 47 l162 0 7 38 c8 49 8 255 -1 360 l-6 82 -803 0
-804 0 0 -239 0 -239 183 -4 c176 -3 183 -4 228 -30 31 -18 53 -42 72 -76 50
-92 29 -225 -44 -286 l-29 -25 0 -689 c0 -539 -3 -692 -12 -700 -15 -12 -151
-66 -190 -76 l-28 -6 0 798 0 799 42 19 c80 36 63 45 -84 42 l-133 -3 -5 -854
-5 -854 -112 -38 -113 -38 0 1103 c0 607 -3 1225 -7 1374 l-6 272 1046 0 1047
0 0 -1375z m-715 -1313 c121 -78 425 -292 425 -298 0 -2 -338 -4 -751 -4 -462
0 -748 4 -744 9 5 9 213 157 419 299 l89 62 231 -1 231 -1 100 -66z m667 -465
c37 -23 111 -72 164 -109 l98 -68 -1247 0 c-686 0 -1247 2 -1247 5 0 5 252
184 285 203 14 8 277 11 950 11 l930 0 67 -42z"/>
<path d="M2590 7072 c0 -12 170 -323 214 -392 l42 -65 120 -28 c409 -95 1041
-169 1684 -197 291 -13 1083 -13 1365 0 638 29 1225 102 1697 211 l87 20 41
70 c56 95 203 379 198 384 -2 2 -79 -20 -170 -50 -732 -238 -1645 -349 -2733
-331 -505 8 -739 24 -1195 81 -429 55 -848 145 -1181 254 -165 54 -169 55
-169 43z"/>
<path d="M4510 5970 l0 -160 215 0 215 0 0 154 0 153 -46 7 c-26 3 -123 6
-215 6 l-169 0 0 -160z"/>
<path d="M5758 6123 l-68 -4 0 -154 0 -155 220 0 220 0 0 63 c0 34 -3 106 -7
160 l-6 97 -146 -2 c-80 -1 -176 -3 -213 -5z"/>
<path d="M5190 5965 l0 -155 130 0 130 0 0 155 0 155 -130 0 -130 0 0 -155z"/>
<path d="M3130 5560 c0 -21 75 -115 124 -154 24 -20 59 -41 77 -46 19 -6 132
-10 251 -10 l218 0 0 95 0 95 -32 0 c-147 2 -598 21 -615 26 -15 4 -23 2 -23
-6z"/>
<path d="M7457 5564 c-3 -4 -145 -9 -314 -13 l-308 -6 -3 -97 -3 -98 241 0
c220 0 244 2 279 20 46 23 104 87 137 153 l24 47 -23 0 c-13 0 -26 -3 -30 -6z"/>
</g>
</svg>
